<?xml version="1.0" encoding="iso-8859-1"?>
<!-- Uploaded to: SVG Repo, www.svgrepo.com, Generator: SVG Repo Mixer Tools -->
<svg fill="#00ff00" height="800px" width="800px" version="1.1" id="Layer_1" xmlns="http://www.w3.org/2000/svg" xmlns:xlink="http://www.w3.org/1999/xlink" 
	 viewBox="0 0 512 512" xml:space="preserve">
<g>
	<g>
		<path d="M202.093,110.066l-2.736-2.736c-4.939-4.938-12.947-4.938-17.888,0c-4.939,4.939-4.939,12.947,0,17.888l2.737,2.736
			c2.47,2.469,5.707,3.704,8.943,3.704c3.237,0,6.474-1.236,8.943-3.704C207.032,123.015,207.032,115.007,202.093,110.066z"/>
	</g>
</g>
<g>
	<g>
		<path d="M512,474.398c0-8.671-3.377-16.825-9.51-22.955l-60.272-60.284c3.319-5.872,5.096-12.524,5.096-19.452
			c0-10.589-4.126-20.545-11.616-28.036L228.025,135.999c-4.939-4.938-12.947-4.938-17.888,0c-4.939,4.939-4.939,12.947,0,17.887
			l207.674,207.672c2.713,2.713,4.208,6.317,4.208,10.148c0,3.831-1.494,7.435-4.208,10.147l-35.957,35.957
			c-5.594,5.597-14.7,5.599-20.297,0L94.189,150.441c-2.713-2.713-4.208-6.318-4.208-10.148s1.494-7.436,4.208-10.147l35.957-35.957
			c5.595-5.598,14.7-5.598,20.297,0l5.074,5.076c4.939,4.938,12.947,4.938,17.887,0c4.939-4.939,4.939-12.947,0-17.888l-5.075-5.075
			c-12.842-12.841-32.372-15.005-47.478-6.51L60.558,9.509C47.899-3.149,27.304-3.15,14.645,9.51L9.51,14.645
			C3.377,20.777,0,28.93,0,37.602c0,8.672,3.377,16.825,9.51,22.955l60.272,60.283c-3.319,5.872-5.096,12.524-5.096,19.452
			c0,10.589,4.126,20.545,11.616,28.036l267.37,267.369c7.73,7.729,17.882,11.594,28.036,11.594
			c6.715-0.001,13.427-1.702,19.441-5.084l60.294,60.283c6.329,6.329,14.642,9.493,22.955,9.493c8.313,0,16.628-3.164,22.957-9.495
			l5.135-5.136v0.001C508.623,491.223,512,483.069,512,474.398z M27.397,42.671c-2.796-2.795-2.796-7.344,0-10.141l5.135-5.135
			c1.398-1.398,3.234-2.097,5.07-2.097c1.836,0,3.673,0.701,5.072,2.097l59.251,59.241l-15.29,15.287L27.397,42.671z
			 M484.604,479.469l-5.135,5.136c-2.796,2.798-7.346,2.793-10.142,0l-59.251-59.241l15.287-15.287l59.24,59.253
			C487.4,472.123,487.4,476.674,484.604,479.469z"/>
	</g>
</g>
</svg>